name rise45.9887peak57.8056fall74.9286.mot
datacolumns 19
datarows 36
range 4.52998100000000 4.58832200000000
endheader
time	ground_force1_vx	ground_force1_vy	ground_force1_vz	ground_force1_px	ground_force1_py	ground_force1_pz	ground_force2_vx	ground_force2_vy	ground_force2_vz	ground_force2_px	ground_force2_py	ground_force2_pz	ground_torque1_x	ground_torque1_y	ground_torque1_z	ground_torque2_x	ground_torque2_y	ground_torque2_z	
4.52998100000000	57.05030700000000	709.94866600000000	52.17121700000000	0.34043900000000	0.00000000000000	0.11202300000000	-0.84082900000000	11.62673700000000	0.57576600000000	0.00000000000000	0.00000000000000	0.00000000000000	0.00000000000000	22.12423400000000	0.00000000000000	0.00000000000000	-0.09676600000000	0.00000000000000	
4.53165500000000	56.72032700000000	715.01379999999995	52.50563900000000	0.33987800000000	0.00000000000000	0.11200800000000	-0.38760500000000	7.28984200000000	0.38188500000000	0.00000000000000	0.00000000000000	0.00000000000000	0.00000000000000	22.31527200000000	0.00000000000000	0.00000000000000	-0.04421500000000	0.00000000000000	
4.53332200000000	56.38759900000000	720.01870499999995	52.84166100000000	0.33935800000000	0.00000000000000	0.11199200000000	-0.04548100000000	3.71600800000000	0.21672200000000	0.00000000000000	0.00000000000000	0.00000000000000	0.00000000000000	22.51017600000000	0.00000000000000	0.00000000000000	-0.00456000000000	0.00000000000000	
4.53498800000000	56.05196900000000	724.95678299999997	53.17880800000000	0.33887800000000	0.00000000000000	0.11197400000000	0.00000000000000	0.00000000000000	0.00000000000000	0.00000000000000	0.00000000000000	0.00000000000000	0.00000000000000	22.70865600000000	0.00000000000000	0.00000000000000	0.00000000000000	0.00000000000000	
4.53665600000000	55.71324200000000	729.82141899999999	53.51653400000000	0.33843500000000	0.00000000000000	0.11195500000000	0.00000000000000	0.00000000000000	0.00000000000000	0.00000000000000	0.00000000000000	0.00000000000000	0.00000000000000	22.91037300000000	0.00000000000000	0.00000000000000	0.00000000000000	0.00000000000000	
4.53831700000000	55.37119100000000	734.60600399999998	53.85422800000000	0.33802700000000	0.00000000000000	0.11193500000000	0.00000000000000	0.00000000000000	0.00000000000000	0.00000000000000	0.00000000000000	0.00000000000000	0.00000000000000	23.11494600000000	0.00000000000000	0.00000000000000	0.00000000000000	0.00000000000000	
4.53998500000000	55.02555500000000	739.30395999999996	54.19121700000000	0.33765100000000	0.00000000000000	0.11191400000000	0.00000000000000	0.00000000000000	0.00000000000000	0.00000000000000	0.00000000000000	0.00000000000000	0.00000000000000	23.32194800000000	0.00000000000000	0.00000000000000	0.00000000000000	0.00000000000000	
4.54164800000000	54.67604800000000	743.90876800000001	54.52677000000000	0.33730500000000	0.00000000000000	0.11189100000000	0.00000000000000	0.00000000000000	0.00000000000000	0.00000000000000	0.00000000000000	0.00000000000000	0.00000000000000	23.53091400000000	0.00000000000000	0.00000000000000	0.00000000000000	0.00000000000000	
4.54332200000000	54.32236300000000	748.41398900000002	54.86010800000000	0.33698700000000	0.00000000000000	0.11186800000000	0.00000000000000	0.00000000000000	0.00000000000000	0.00000000000000	0.00000000000000	0.00000000000000	0.00000000000000	23.74134100000000	0.00000000000000	0.00000000000000	0.00000000000000	0.00000000000000	
4.54498600000000	53.96417300000000	752.81329100000005	55.19040400000000	0.33669300000000	0.00000000000000	0.11184400000000	0.00000000000000	0.00000000000000	0.00000000000000	0.00000000000000	0.00000000000000	0.00000000000000	0.00000000000000	23.95269100000000	0.00000000000000	0.00000000000000	0.00000000000000	0.00000000000000	
4.54665500000000	53.60114000000000	757.10047099999997	55.51678900000000	0.33642200000000	0.00000000000000	0.11181900000000	0.00000000000000	0.00000000000000	0.00000000000000	0.00000000000000	0.00000000000000	0.00000000000000	0.00000000000000	24.16439800000000	0.00000000000000	0.00000000000000	0.00000000000000	0.00000000000000	
4.54831900000000	53.23291600000000	761.26948100000004	55.83836200000000	0.33617000000000	0.00000000000000	0.11179300000000	0.00000000000000	0.00000000000000	0.00000000000000	0.00000000000000	0.00000000000000	0.00000000000000	0.00000000000000	24.37586500000000	0.00000000000000	0.00000000000000	0.00000000000000	0.00000000000000	
4.54998000000000	52.85915000000000	765.31444899999997	56.15419200000000	0.33593500000000	0.00000000000000	0.11176600000000	0.00000000000000	0.00000000000000	0.00000000000000	0.00000000000000	0.00000000000000	0.00000000000000	0.00000000000000	24.58647400000000	0.00000000000000	0.00000000000000	0.00000000000000	0.00000000000000	
4.55165800000000	52.47949100000000	769.22969799999998	56.46332900000000	0.33571400000000	0.00000000000000	0.11173900000000	0.00000000000000	0.00000000000000	0.00000000000000	0.00000000000000	0.00000000000000	0.00000000000000	0.00000000000000	24.79558400000000	0.00000000000000	0.00000000000000	0.00000000000000	0.00000000000000	
4.55332100000000	52.09358900000000	773.00977499999999	56.76480400000000	0.33550500000000	0.00000000000000	0.11171100000000	0.00000000000000	0.00000000000000	0.00000000000000	0.00000000000000	0.00000000000000	0.00000000000000	0.00000000000000	25.00253800000000	0.00000000000000	0.00000000000000	0.00000000000000	0.00000000000000	
4.55498000000000	51.70110700000000	776.64946399999997	57.05764000000000	0.33530400000000	0.00000000000000	0.11168300000000	0.00000000000000	0.00000000000000	0.00000000000000	0.00000000000000	0.00000000000000	0.00000000000000	0.00000000000000	25.20666900000000	0.00000000000000	0.00000000000000	0.00000000000000	0.00000000000000	
4.55664900000000	51.30171600000000	780.14380600000004	57.34085900000000	0.33511000000000	0.00000000000000	0.11165400000000	0.00000000000000	0.00000000000000	0.00000000000000	0.00000000000000	0.00000000000000	0.00000000000000	0.00000000000000	25.40729800000000	0.00000000000000	0.00000000000000	0.00000000000000	0.00000000000000	
4.55831700000000	50.89510600000000	783.48812299999997	57.61348400000000	0.33491900000000	0.00000000000000	0.11162500000000	0.00000000000000	0.00000000000000	0.00000000000000	0.00000000000000	0.00000000000000	0.00000000000000	0.00000000000000	25.60374200000000	0.00000000000000	0.00000000000000	0.00000000000000	0.00000000000000	
4.55998400000000	50.48098300000000	786.67802900000004	57.87455200000000	0.33472900000000	0.00000000000000	0.11159600000000	0.00000000000000	0.00000000000000	0.00000000000000	0.00000000000000	0.00000000000000	0.00000000000000	0.00000000000000	25.79531800000000	0.00000000000000	0.00000000000000	0.00000000000000	0.00000000000000	
4.56165000000000	50.05907800000000	789.70944799999995	58.12311300000000	0.33453700000000	0.00000000000000	0.11156700000000	0.00000000000000	0.00000000000000	0.00000000000000	0.00000000000000	0.00000000000000	0.00000000000000	0.00000000000000	25.98134300000000	0.00000000000000	0.00000000000000	0.00000000000000	0.00000000000000	
4.56331500000000	49.62914800000000	792.57862799999998	58.35824100000000	0.33434100000000	0.00000000000000	0.11153700000000	0.00000000000000	0.00000000000000	0.00000000000000	0.00000000000000	0.00000000000000	0.00000000000000	0.00000000000000	26.16114600000000	0.00000000000000	0.00000000000000	0.00000000000000	0.00000000000000	
4.56498800000000	49.19097800000000	795.28215699999998	58.57904000000000	0.33413800000000	0.00000000000000	0.11150700000000	0.00000000000000	0.00000000000000	0.00000000000000	0.00000000000000	0.00000000000000	0.00000000000000	0.00000000000000	26.33406100000000	0.00000000000000	0.00000000000000	0.00000000000000	0.00000000000000	
4.56664900000000	48.74438300000000	797.81697199999996	58.78464600000000	0.33392600000000	0.00000000000000	0.11147700000000	0.00000000000000	0.00000000000000	0.00000000000000	0.00000000000000	0.00000000000000	0.00000000000000	0.00000000000000	26.49944200000000	0.00000000000000	0.00000000000000	0.00000000000000	0.00000000000000	
4.56832900000000	48.28921500000000	800.18037000000004	58.97423700000000	0.33370200000000	0.00000000000000	0.11144800000000	0.00000000000000	0.00000000000000	0.00000000000000	0.00000000000000	0.00000000000000	0.00000000000000	0.00000000000000	26.65665700000000	0.00000000000000	0.00000000000000	0.00000000000000	0.00000000000000	
4.56998400000000	47.82535800000000	802.37001999999995	59.14703400000000	0.33346400000000	0.00000000000000	0.11141800000000	0.00000000000000	0.00000000000000	0.00000000000000	0.00000000000000	0.00000000000000	0.00000000000000	0.00000000000000	26.80510000000000	0.00000000000000	0.00000000000000	0.00000000000000	0.00000000000000	
4.57165600000000	47.35273500000000	804.38396599999999	59.30231000000000	0.33321000000000	0.00000000000000	0.11138900000000	0.00000000000000	0.00000000000000	0.00000000000000	0.00000000000000	0.00000000000000	0.00000000000000	0.00000000000000	26.94418600000000	0.00000000000000	0.00000000000000	0.00000000000000	0.00000000000000	
4.57332200000000	46.87130900000000	806.22064000000000	59.43939100000000	0.33293700000000	0.00000000000000	0.11136000000000	0.00000000000000	0.00000000000000	0.00000000000000	0.00000000000000	0.00000000000000	0.00000000000000	0.00000000000000	27.07336400000000	0.00000000000000	0.00000000000000	0.00000000000000	0.00000000000000	
4.57498800000000	46.38108100000000	807.87885800000004	59.55766000000000	0.33264300000000	0.00000000000000	0.11133100000000	0.00000000000000	0.00000000000000	0.00000000000000	0.00000000000000	0.00000000000000	0.00000000000000	0.00000000000000	27.19211000000000	0.00000000000000	0.00000000000000	0.00000000000000	0.00000000000000	
4.57665100000000	45.88209400000000	809.35783400000003	59.65656400000000	0.33232600000000	0.00000000000000	0.11130300000000	0.00000000000000	0.00000000000000	0.00000000000000	0.00000000000000	0.00000000000000	0.00000000000000	0.00000000000000	27.29994000000000	0.00000000000000	0.00000000000000	0.00000000000000	0.00000000000000	
4.57832100000000	45.37443200000000	810.65717299999994	59.73561400000000	0.33198300000000	0.00000000000000	0.11127500000000	0.00000000000000	0.00000000000000	0.00000000000000	0.00000000000000	0.00000000000000	0.00000000000000	0.00000000000000	27.39640400000000	0.00000000000000	0.00000000000000	0.00000000000000	0.00000000000000	
4.57998400000000	44.85822100000000	811.77687500000002	59.79439100000000	0.33161400000000	0.00000000000000	0.11124800000000	0.00000000000000	0.00000000000000	0.00000000000000	0.00000000000000	0.00000000000000	0.00000000000000	0.00000000000000	27.48109500000000	0.00000000000000	0.00000000000000	0.00000000000000	0.00000000000000	
4.58165200000000	44.33362900000000	812.71733700000004	59.83254300000000	0.33121700000000	0.00000000000000	0.11122100000000	0.00000000000000	0.00000000000000	0.00000000000000	0.00000000000000	0.00000000000000	0.00000000000000	0.00000000000000	27.55364800000000	0.00000000000000	0.00000000000000	0.00000000000000	0.00000000000000	
4.58332000000000	43.80086500000000	813.47934499999997	59.84979400000000	0.33078800000000	0.00000000000000	0.11119500000000	0.00000000000000	0.00000000000000	0.00000000000000	0.00000000000000	0.00000000000000	0.00000000000000	0.00000000000000	27.61374100000000	0.00000000000000	0.00000000000000	0.00000000000000	0.00000000000000	
4.58498300000000	43.26018000000000	814.06407600000000	59.84593800000000	0.33032700000000	0.00000000000000	0.11117000000000	0.00000000000000	0.00000000000000	0.00000000000000	0.00000000000000	0.00000000000000	0.00000000000000	0.00000000000000	27.66110000000000	0.00000000000000	0.00000000000000	0.00000000000000	0.00000000000000	
4.58664800000000	42.71186400000000	814.47308799999996	59.82084600000000	0.32983200000000	0.00000000000000	0.11114600000000	0.00000000000000	0.00000000000000	0.00000000000000	0.00000000000000	0.00000000000000	0.00000000000000	0.00000000000000	27.69550000000000	0.00000000000000	0.00000000000000	0.00000000000000	0.00000000000000	
4.58832200000000	42.15624700000000	814.70831999999996	59.77446300000000	0.32930200000000	0.00000000000000	0.11112300000000	0.00000000000000	0.00000000000000	0.00000000000000	0.00000000000000	0.00000000000000	0.00000000000000	0.00000000000000	27.71676300000000	0.00000000000000	0.00000000000000	0.00000000000000	0.00000000000000	
